<svg width="532" height="520" viewBox="0 0 532 520" fill="none" xmlns="http://www.w3.org/2000/svg">
<path d="M223.815 0.382963C396.045 -9.06473 522.89 157.911 464.026 322.201C455.702 345.274 433.702 377.992 452.729 401.363C469.377 421.75 497.323 412.302 517.043 432.192C558.565 474.16 505.845 543.377 453.918 512.15C425.774 495.243 433.603 457.353 400.108 446.414C373.947 437.861 354.028 452.381 331.533 461.729C162.474 532.139 -17.9823 395.496 1.44078 213.503C13.5306 99.2357 109.159 6.64828 223.815 0.382963ZM277.129 125.093C158.906 131.358 87.9525 261.139 147.51 364.766C208.455 470.779 361.56 470.978 423 365.362C486.719 255.769 402.784 118.529 277.228 125.093H277.129Z" fill="white"/>
</svg>
