<svg width="21" height="19" viewBox="0 0 21 19" fill="none" xmlns="http://www.w3.org/2000/svg">
<path d="M14.75 3.25C14.0859 3.25 13.5 2.66406 13.5 2C13.5 1.29687 14.0859 0.75 14.75 0.75L17.25 0.75C19.3594 0.75 21 2.39063 21 4.5L21 14.5C21 16.5703 19.3594 18.25 17.25 18.25L14.75 18.25C14.0859 18.25 13.5 17.6641 13.5 17C13.5 16.2969 14.0859 15.75 14.75 15.75L17.25 15.75C17.9531 15.75 18.5 15.1641 18.5 14.5L18.5 4.5C18.5 3.79687 17.9531 3.25 17.25 3.25L14.75 3.25ZM1.39062 10.3594C0.882811 9.89062 0.882812 9.07031 1.39062 8.60156L6.39062 3.60156C6.85937 3.09375 7.67969 3.09375 8.14844 3.60156C8.65625 4.07031 8.65625 4.89062 8.14844 5.35937L5.29687 8.25L13.5 8.25C14.2031 8.25 14.75 8.79687 14.75 9.5C14.75 10.1641 14.2031 10.75 13.5 10.75L5.29687 10.75L8.14844 13.6016C8.65625 14.0703 8.65625 14.8906 8.14844 15.3594C7.67969 15.8672 6.85937 15.8672 6.39062 15.3594L1.39062 10.3594Z" fill="white"/>
</svg>
