<svg width="38" height="38" viewBox="0 0 38 38" fill="none" xmlns="http://www.w3.org/2000/svg">
<circle cx="19" cy="19" r="19" fill="#8E9455"/>
<path d="M21.75 12.25C21.0859 12.25 20.5 11.6641 20.5 11C20.5 10.2969 21.0859 9.75 21.75 9.75L24.25 9.75C26.3594 9.75 28 11.3906 28 13.5L28 23.5C28 25.5703 26.3594 27.25 24.25 27.25L21.75 27.25C21.0859 27.25 20.5 26.6641 20.5 26C20.5 25.2969 21.0859 24.75 21.75 24.75L24.25 24.75C24.9531 24.75 25.5 24.1641 25.5 23.5L25.5 13.5C25.5 12.7969 24.9531 12.25 24.25 12.25L21.75 12.25ZM8.39062 19.3594C7.88281 18.8906 7.88281 18.0703 8.39062 17.6016L13.3906 12.6016C13.8594 12.0937 14.6797 12.0937 15.1484 12.6016C15.6562 13.0703 15.6562 13.8906 15.1484 14.3594L12.2969 17.25L20.5 17.25C21.2031 17.25 21.75 17.7969 21.75 18.5C21.75 19.1641 21.2031 19.75 20.5 19.75L12.2969 19.75L15.1484 22.6016C15.6562 23.0703 15.6562 23.8906 15.1484 24.3594C14.6797 24.8672 13.8594 24.8672 13.3906 24.3594L8.39062 19.3594Z" fill="white"/>
</svg>
