<svg xmlns="http://www.w3.org/2000/svg" xmlns:xlink="http://www.w3.org/1999/xlink" width="1134" zoomAndPan="magnify" viewBox="0 0 850.07996 566.999966" height="756" preserveAspectRatio="xMidYMid meet" version="1.0"><defs><clipPath id="2115c56769"><path d="M 216.078125 148 L 633.375 148 L 633.375 458 L 216.078125 458 Z M 216.078125 148 " clip-rule="nonzero"/></clipPath></defs><path fill="#d9d9d9" d="M 424.734375 457.914062 C 422.835938 457.914062 421.3125 456.390625 421.3125 454.492188 L 421.3125 167.164062 C 421.3125 165.269531 422.835938 163.746094 424.734375 163.746094 C 426.628906 163.746094 428.152344 165.269531 428.152344 167.164062 L 428.152344 454.492188 C 428.152344 456.390625 426.628906 457.914062 424.734375 457.914062 " fill-opacity="1" fill-rule="nonzero"/><path fill="#d9d9d9" d="M 257.125 396.398438 C 317.304688 397.597656 375.136719 416.226562 424.734375 450.324219 C 474.332031 416.226562 532.1875 397.597656 592.339844 396.398438 L 592.339844 115.910156 C 532.828125 117.113281 475.613281 135.765625 426.683594 169.972656 C 425.507812 170.800781 423.957031 170.800781 422.78125 169.972656 C 373.851562 135.765625 316.664062 117.113281 257.125 115.910156 Z M 424.734375 457.914062 C 424.039062 457.914062 423.371094 457.699219 422.78125 457.300781 C 372.945312 422.480469 314.472656 403.746094 253.679688 403.183594 C 251.78125 403.15625 250.285156 401.632812 250.285156 399.765625 L 250.285156 112.4375 C 250.285156 111.527344 250.660156 110.644531 251.300781 110.003906 C 251.941406 109.363281 253.0625 109.121094 253.730469 109.015625 C 315.089844 109.578125 374.144531 128.230469 424.734375 162.996094 C 475.320312 128.230469 534.378906 109.578125 595.734375 109.015625 C 596.722656 109.09375 597.527344 109.363281 598.167969 110.003906 C 598.808594 110.644531 599.183594 111.527344 599.183594 112.4375 L 599.183594 399.765625 C 599.183594 401.632812 597.6875 403.15625 595.789062 403.183594 C 534.992188 403.746094 476.523438 422.480469 426.683594 457.300781 C 426.097656 457.699219 425.429688 457.914062 424.734375 457.914062 " fill-opacity="1" fill-rule="nonzero"/><path fill="#d9d9d9" d="M 458.9375 184.1875 C 457.710938 184.1875 456.535156 183.546875 455.917969 182.371094 C 455.039062 180.6875 455.679688 178.628906 457.363281 177.746094 C 468.613281 171.839844 480.265625 166.683594 491.96875 162.433594 C 502.980469 158.265625 514.628906 154.660156 526.550781 151.800781 C 537.613281 149.101562 549.238281 146.988281 561.128906 145.519531 C 562.972656 145.226562 564.710938 146.589844 564.949219 148.484375 C 565.191406 150.355469 563.855469 152.066406 561.984375 152.308594 C 550.359375 153.75 538.976562 155.808594 528.152344 158.453125 C 516.5 161.257812 505.144531 164.761719 494.347656 168.847656 C 482.882812 173.015625 471.527344 178.042969 460.515625 183.8125 C 460.007812 184.082031 459.472656 184.1875 458.9375 184.1875 " fill-opacity="1" fill-rule="nonzero"/><path fill="#d9d9d9" d="M 458.9375 218.394531 C 457.710938 218.394531 456.535156 217.753906 455.917969 216.578125 C 455.039062 214.894531 455.679688 212.835938 457.363281 211.953125 C 468.613281 206.046875 480.265625 200.890625 491.96875 196.640625 C 502.980469 192.472656 514.628906 188.863281 526.550781 186.003906 C 537.613281 183.304688 549.238281 181.195312 561.128906 179.726562 C 562.972656 179.429688 564.710938 180.792969 564.949219 182.691406 C 565.191406 184.5625 563.855469 186.273438 561.984375 186.511719 C 550.359375 187.957031 538.976562 190.011719 528.152344 192.660156 C 516.5 195.464844 505.144531 198.964844 494.347656 203.054688 C 482.882812 207.222656 471.527344 212.246094 460.515625 218.019531 C 460.007812 218.285156 459.472656 218.394531 458.9375 218.394531 " fill-opacity="1" fill-rule="nonzero"/><path fill="#d9d9d9" d="M 458.9375 252.597656 C 457.710938 252.597656 456.535156 251.957031 455.917969 250.78125 C 455.039062 249.097656 455.679688 247.039062 457.363281 246.160156 C 468.613281 240.253906 480.265625 235.09375 491.96875 230.847656 C 502.980469 226.675781 514.628906 223.070312 526.550781 220.210938 C 537.613281 217.511719 549.238281 215.402344 561.128906 213.929688 C 562.972656 213.636719 564.710938 215 564.949219 216.898438 C 565.191406 218.769531 563.855469 220.476562 561.984375 220.71875 C 550.359375 222.160156 538.976562 224.21875 528.152344 226.863281 C 516.5 229.671875 505.144531 233.171875 494.347656 237.261719 C 482.882812 241.429688 471.527344 246.453125 460.515625 252.226562 C 460.007812 252.492188 459.472656 252.597656 458.9375 252.597656 " fill-opacity="1" fill-rule="nonzero"/><path fill="#d9d9d9" d="M 527.351562 261.152344 C 525.800781 261.152344 524.410156 260.109375 524.035156 258.558594 C 523.582031 256.714844 524.707031 254.871094 526.550781 254.417969 C 537.613281 251.71875 549.238281 249.605469 561.128906 248.136719 C 562.972656 247.84375 564.710938 249.207031 564.949219 251.101562 C 565.191406 252.972656 563.855469 254.683594 561.984375 254.925781 C 550.359375 256.367188 538.976562 258.425781 528.152344 261.070312 C 527.886719 261.125 527.617188 261.152344 527.351562 261.152344 " fill-opacity="1" fill-rule="nonzero"/><path fill="#d9d9d9" d="M 527.351562 295.355469 C 525.800781 295.355469 524.410156 294.3125 524.035156 292.765625 C 523.582031 290.921875 524.707031 289.078125 526.550781 288.621094 C 537.613281 285.921875 549.238281 283.8125 561.128906 282.34375 C 562.972656 282.046875 564.710938 283.410156 564.949219 285.308594 C 565.191406 287.179688 563.855469 288.890625 561.984375 289.128906 C 550.359375 290.574219 538.976562 292.628906 528.152344 295.277344 C 527.886719 295.328125 527.617188 295.355469 527.351562 295.355469 " fill-opacity="1" fill-rule="nonzero"/><path fill="#d9d9d9" d="M 458.9375 362.058594 C 457.710938 362.058594 456.535156 361.417969 455.917969 360.242188 C 455.039062 358.558594 455.679688 356.5 457.363281 355.617188 C 468.613281 349.710938 480.265625 344.554688 491.96875 340.304688 C 493.757812 339.691406 495.710938 340.570312 496.351562 342.363281 C 497.019531 344.125 496.085938 346.105469 494.320312 346.746094 C 482.882812 350.886719 471.527344 355.910156 460.515625 361.683594 C 460.007812 361.949219 459.472656 362.058594 458.9375 362.058594 " fill-opacity="1" fill-rule="nonzero"/><path fill="#d9d9d9" d="M 458.9375 396.261719 C 457.710938 396.261719 456.535156 395.621094 455.917969 394.445312 C 455.039062 392.761719 455.679688 390.703125 457.363281 389.824219 C 468.613281 383.917969 480.265625 378.757812 491.96875 374.511719 C 493.757812 373.894531 495.710938 374.777344 496.351562 376.566406 C 497.019531 378.332031 496.085938 380.308594 494.320312 380.949219 C 482.882812 385.09375 471.527344 390.117188 460.515625 395.890625 C 460.007812 396.15625 459.472656 396.261719 458.9375 396.261719 " fill-opacity="1" fill-rule="nonzero"/><path fill="#d9d9d9" d="M 291.332031 248.511719 C 324.761719 252.917969 356.9375 262.78125 387.105469 277.800781 L 387.105469 182.851562 C 356.988281 167.433594 324.816406 157.304688 291.332031 152.789062 Z M 390.527344 286.804688 C 389.992188 286.804688 389.457031 286.699219 388.949219 286.429688 C 357.152344 269.863281 323.023438 259.253906 287.507812 254.925781 C 285.773438 254.710938 284.488281 253.242188 284.488281 251.53125 L 284.488281 148.914062 C 284.488281 147.925781 284.917969 146.988281 285.640625 146.347656 C 286.386719 145.679688 287.347656 145.386719 288.3125 145.519531 C 324.683594 149.957031 359.609375 160.804688 392.105469 177.746094 C 393.253906 178.335938 393.949219 179.511719 393.949219 180.765625 L 393.949219 283.382812 C 393.949219 284.585938 393.332031 285.710938 392.292969 286.324219 C 391.757812 286.644531 391.140625 286.804688 390.527344 286.804688 " fill-opacity="1" fill-rule="nonzero"/><path fill="#d9d9d9" d="M 390.527344 327.851562 C 389.992188 327.851562 389.457031 327.746094 388.949219 327.476562 C 357.152344 310.910156 323.023438 300.300781 287.507812 295.972656 C 285.613281 295.730469 284.277344 294.019531 284.515625 292.148438 C 284.730469 290.277344 286.496094 288.941406 288.3125 289.183594 C 324.683594 293.621094 359.609375 304.46875 392.105469 321.410156 C 393.789062 322.292969 394.429688 324.351562 393.574219 326.035156 C 392.960938 327.210938 391.757812 327.851562 390.527344 327.851562 " fill-opacity="1" fill-rule="nonzero"/><path fill="#d9d9d9" d="M 390.527344 362.058594 C 389.992188 362.058594 389.457031 361.949219 388.949219 361.683594 C 357.152344 345.113281 323.023438 334.507812 287.507812 330.175781 C 285.613281 329.9375 284.277344 328.226562 284.515625 326.355469 C 284.730469 324.484375 286.496094 323.121094 288.3125 323.390625 C 324.683594 327.824219 359.609375 338.675781 392.105469 355.617188 C 393.789062 356.5 394.429688 358.558594 393.574219 360.242188 C 392.960938 361.417969 391.757812 362.058594 390.527344 362.058594 " fill-opacity="1" fill-rule="nonzero"/><path fill="#d9d9d9" d="M 390.527344 396.261719 C 389.992188 396.261719 389.457031 396.15625 388.949219 395.890625 C 357.152344 379.320312 323.023438 368.710938 287.507812 364.382812 C 285.613281 364.140625 284.277344 362.433594 284.515625 360.5625 C 284.730469 358.691406 286.496094 357.328125 288.3125 357.59375 C 324.683594 362.03125 359.609375 372.878906 392.105469 389.824219 C 393.789062 390.703125 394.429688 392.761719 393.574219 394.445312 C 392.960938 395.621094 391.757812 396.261719 390.527344 396.261719 " fill-opacity="1" fill-rule="nonzero"/><g clip-path="url(#2115c56769)"><path fill="#d9d9d9" d="M 424.734375 457.914062 C 424.441406 457.914062 424.117188 457.859375 423.851562 457.808594 C 357.097656 439.769531 288.5 435.199219 219.953125 444.203125 C 218.9375 444.363281 217.976562 444.042969 217.226562 443.375 C 216.507812 442.734375 216.078125 441.800781 216.078125 440.8125 L 216.078125 153.484375 C 216.078125 151.773438 217.359375 150.300781 219.042969 150.089844 C 222.839844 149.582031 226.660156 149.125 230.457031 148.726562 C 232.246094 148.539062 234.035156 149.875 234.222656 151.746094 C 234.4375 153.617188 233.074219 155.328125 231.203125 155.515625 C 228.425781 155.808594 225.671875 156.15625 222.917969 156.503906 L 222.917969 436.9375 C 290.769531 428.519531 358.648438 433.222656 424.734375 450.9375 C 490.820312 433.222656 558.695312 428.519531 626.546875 436.9375 L 626.546875 156.503906 C 623.792969 156.15625 621.042969 155.808594 618.261719 155.515625 C 616.390625 155.328125 615.03125 153.617188 615.242188 151.746094 C 615.457031 149.875 617.246094 148.539062 619.011719 148.726562 C 622.832031 149.125 626.628906 149.582031 630.421875 150.089844 C 632.132812 150.300781 633.386719 151.773438 633.386719 153.484375 L 633.386719 440.8125 C 633.386719 441.800781 632.960938 442.734375 632.238281 443.375 C 631.492188 444.042969 630.554688 444.363281 629.511719 444.203125 C 560.96875 435.199219 492.371094 439.769531 425.617188 457.808594 C 425.347656 457.859375 425.027344 457.914062 424.734375 457.914062 " fill-opacity="1" fill-rule="nonzero"/></g><path fill="#d9d9d9" d="M 462.359375 285.46875 L 462.359375 312.003906 C 471.3125 307.542969 480.503906 303.535156 489.722656 300.085938 L 489.722656 273.203125 C 480.476562 276.757812 471.285156 280.871094 462.359375 285.46875 Z M 458.9375 321.011719 C 458.324219 321.011719 457.710938 320.851562 457.175781 320.53125 C 456.160156 319.914062 455.519531 318.792969 455.519531 317.589844 L 455.519531 283.382812 C 455.519531 282.128906 456.214844 280.953125 457.363281 280.363281 C 468.613281 274.457031 480.265625 269.300781 491.96875 265.050781 C 493.011719 264.679688 494.1875 264.839844 495.097656 265.480469 C 496.03125 266.121094 496.566406 267.164062 496.566406 268.285156 L 496.566406 302.492188 C 496.566406 303.90625 495.65625 305.21875 494.320312 305.699219 C 482.882812 309.839844 471.527344 314.863281 460.515625 320.636719 C 460.035156 320.902344 459.5 321.011719 458.9375 321.011719 " fill-opacity="1" fill-rule="nonzero"/><path fill="#d9d9d9" d="M 530.769531 335.707031 L 530.769531 362.886719 C 539.617188 360.855469 548.78125 359.226562 558.136719 357.96875 L 558.136719 330.65625 C 548.78125 331.941406 539.589844 333.625 530.769531 335.707031 Z M 527.351562 370.609375 C 526.601562 370.609375 525.855469 370.367188 525.238281 369.886719 C 524.410156 369.246094 523.929688 368.257812 523.929688 367.1875 L 523.929688 332.984375 C 523.929688 331.433594 525 330.042969 526.550781 329.667969 C 537.613281 326.96875 549.238281 324.859375 561.128906 323.390625 C 562.117188 323.253906 563.078125 323.550781 563.828125 324.21875 C 564.550781 324.859375 564.976562 325.792969 564.976562 326.78125 L 564.976562 360.988281 C 564.976562 362.699219 563.695312 364.167969 561.984375 364.382812 C 550.359375 365.824219 538.976562 367.882812 528.152344 370.527344 C 527.886719 370.582031 527.617188 370.609375 527.351562 370.609375 " fill-opacity="1" fill-rule="nonzero"/></svg>