<svg width="71" height="56" viewBox="0 0 71 56" fill="none" xmlns="http://www.w3.org/2000/svg">
<path d="M3.54723 21.3543C0.188102 17.0907 -0.810737 13.4978 0.659502 10.9717L2.3572 8.05292C3.34615 6.35466 4.3318 4.6564 5.32405 2.95487C6.89977 0.245513 11.0995 -0.641247 17.1486 0.461476C22.868 1.50203 29.6984 4.18521 36.3771 8.01038C39.578 9.84607 42.5613 11.8356 45.2447 13.9232L44.048 15.4415C41.4339 13.4095 38.5297 11.4691 35.4079 9.67919C28.9171 5.95873 22.3076 3.35735 16.7992 2.35607C11.6929 1.42677 8.12278 1.99613 7.00526 3.92016C4.86583 7.60136 11.7588 16.95 25.436 24.9962L24.447 26.6552C17.9826 22.8497 12.4412 18.3995 8.84471 14.1195C6.80418 11.6916 5.49876 9.42724 4.96143 7.43775C4.65486 7.96457 4.34828 8.49139 4.04171 9.01821L2.34401 11.937C1.5067 13.3768 2.04403 15.6836 3.81755 18.4159L5.28779 15.8865L6.969 16.8485L5.05703 20.1403C5.05703 20.1403 5.07351 20.16 5.08011 20.1698C6.39211 21.8353 8.05355 23.5565 9.9853 25.2711L11.65 22.408L13.3312 23.37L11.4819 26.5505C13.5554 28.2651 15.886 29.9536 18.3947 31.5537L17.3464 33.1767C11.5379 29.4759 6.63935 25.2777 3.55053 21.3543H3.54723ZM18.5826 7.26106C22.7263 8.48485 27.8589 10.795 33.0344 13.7596C35.187 14.9932 37.2473 16.2857 39.1593 17.5979L40.2636 16.0109C38.3088 14.6693 36.2057 13.3506 34.0069 12.0908C28.7028 9.05094 23.4218 6.68188 19.1364 5.41555C14.3103 3.98888 11.3599 4.13613 10.3611 5.85075C9.36226 7.5621 10.7105 10.1733 14.3696 13.6091C17.6167 16.6587 22.3274 20.016 27.6315 23.0558C27.9743 23.2522 28.3237 23.4485 28.6699 23.6416L29.6225 21.9629C29.283 21.7732 28.9402 21.5801 28.6006 21.387C23.4251 18.4192 18.843 15.1601 15.7014 12.2086C12.2236 8.94295 11.7852 7.25124 12.039 6.81604C12.2928 6.37757 13.9905 5.90638 18.5793 7.26433L18.5826 7.26106ZM66.6192 35.2316C62.8513 39.6294 57.0956 44.1614 50.4202 47.9898C43.7382 51.8183 36.9078 54.4982 31.1884 55.5387C29.494 55.8463 27.9446 56.0001 26.5568 56.0001C22.9933 56.0001 20.4978 54.9955 19.3638 53.0453C18.276 51.1736 17.1881 49.302 16.1003 47.4335L14.7026 45.0318C13.1269 42.3224 14.4521 38.2682 18.4375 33.6152C22.2054 29.2141 27.9611 24.6854 34.6431 20.8569C41.3218 17.0285 48.1522 14.3486 53.8749 13.308C59.924 12.2086 64.1237 13.0921 65.7027 15.8014L70.3607 23.8215C71.9364 26.5276 70.6112 30.5818 66.6257 35.2316H66.6192ZM16.3805 44.0665C17.498 45.9905 21.0681 46.5599 26.1744 45.6306C31.6829 44.6293 38.2923 42.0279 44.7864 38.3074C51.2772 34.587 56.8516 30.2055 60.4811 25.9714C63.8435 22.0447 65.1324 18.6908 64.0149 16.77C62.8974 14.8492 59.3273 14.2799 54.221 15.2092C48.7093 16.2105 42.0998 18.8118 35.609 22.5323C29.1149 26.2528 23.5405 30.6342 19.9144 34.8684C16.5519 38.795 15.263 42.149 16.3838 44.0697L16.3805 44.0665ZM68.6696 24.7836L66.0587 20.2876C65.5016 22.3425 64.1237 24.6919 61.9579 27.2181C58.19 31.6159 52.4343 36.1478 45.7556 39.9763C39.0736 43.8047 32.2433 46.4846 26.5238 47.5252C24.8294 47.8328 23.2801 47.9865 21.8923 47.9865C20.5901 47.9865 19.4298 47.8524 18.4276 47.5873C19.2979 49.086 20.1715 50.5847 21.0418 52.0833C21.8923 53.5427 24.1537 54.22 27.4304 54.0564L25.9601 51.5238L27.6413 50.5617L29.55 53.8536C29.9654 53.7947 30.3939 53.7292 30.8324 53.6474C32.6158 53.3235 34.5178 52.8294 36.4924 52.1847L34.8244 49.3183L36.5056 48.353L38.3583 51.5369C40.4219 50.781 42.5514 49.8746 44.7007 48.8308L42.9931 45.8891L44.6744 44.9271L46.438 47.9604C47.4401 47.4401 48.4456 46.8936 49.4477 46.321C50.4465 45.7484 51.4256 45.1594 52.3783 44.5573L50.6146 41.524L52.2959 40.5587L54.0067 43.5004C55.9912 42.1752 57.8472 40.8008 59.5383 39.4036L57.6856 36.2165L59.3669 35.2545L61.0316 38.1209C62.5809 36.7434 63.9622 35.3559 65.139 33.9849C65.4291 33.6479 65.7027 33.3141 65.9599 32.9869L64.0479 29.6984L65.7291 28.7363L67.1993 31.2657C68.9794 28.5302 69.5201 26.2462 68.6696 24.7868V24.7836ZM19.7363 42.1392C18.7408 40.4245 20.0891 37.8166 23.7449 34.3808C26.9952 31.3279 31.7026 27.9739 37.0067 24.9341C42.3108 21.8942 47.5918 19.5252 51.8772 18.2588C56.7033 16.8322 59.6537 16.9794 60.6525 18.694C61.6513 20.4087 60.3031 23.0198 56.6439 26.4556C53.3969 29.5053 48.6862 32.8593 43.3821 35.8991C38.0781 38.939 32.7971 41.308 28.5116 42.5744C26.3227 43.2223 24.5196 43.5429 23.1087 43.5429C21.411 43.5429 20.2803 43.075 19.7363 42.1359V42.1392ZM21.4176 41.1739C21.6714 41.6123 23.3658 42.0803 27.9578 40.7256C32.1015 39.5018 37.2342 37.1916 42.4097 34.227C47.5852 31.2625 52.1673 28.0034 55.3089 25.0519C58.7867 21.7862 59.2251 20.0945 58.9713 19.6561C58.7174 19.2176 57.023 18.7464 52.431 20.1043C48.2873 21.3281 43.1547 23.6383 37.9792 26.6029C32.8037 29.5675 28.2248 32.8266 25.0833 35.7781C21.6055 39.047 21.167 40.7354 21.4209 41.1739H21.4176Z" fill="#FFFFFD"/>
</svg>
