<svg width="52" height="52" viewBox="0 0 52 52" fill="none" xmlns="http://www.w3.org/2000/svg">
<circle cx="26" cy="26" r="25.5" fill="#D9D9D9" fill-opacity="0.15" stroke="white"/>
<path d="M33.5117 30.8008C34.1465 31.3867 34.1465 32.4121 33.5117 32.998C33.2188 33.291 32.8281 33.4375 32.4375 33.4375C31.998 33.4375 31.6074 33.291 31.3145 32.998L26.1875 27.8711L21.0117 32.998C20.7188 33.291 20.3281 33.4375 19.9375 33.4375C19.498 33.4375 19.1074 33.291 18.8145 32.998C18.1797 32.4121 18.1797 31.3867 18.8145 30.8008L23.9414 25.625L18.8145 20.498C18.1797 19.9121 18.1797 18.8867 18.8145 18.3008C19.4004 17.666 20.4258 17.666 21.0117 18.3008L26.1875 23.4277L31.3145 18.3008C31.9004 17.666 32.9258 17.666 33.5117 18.3008C34.1465 18.8867 34.1465 19.9121 33.5117 20.498L28.3848 25.6738L33.5117 30.8008Z" fill="white"/>
</svg>
