<svg width="69" height="71" viewBox="0 0 69 71" fill="none" xmlns="http://www.w3.org/2000/svg">
<ellipse cx="34.5" cy="35.5" rx="34.5" ry="35.5" fill="#E0A075"/>
<path d="M19 31.4395V31.1367C19 26.8984 22.0273 23.2656 26.2051 22.5996C28.9297 22.1152 31.7754 23.0234 33.7734 25.0215L34.5 25.6875L35.166 25.0215C37.1641 23.0234 40.0098 22.1152 42.7344 22.5996C46.9121 23.2656 50 26.8984 50 31.1367V31.4395C50 33.9824 48.9102 36.4043 47.0938 38.0996L36.1348 48.332C35.7109 48.7559 35.1055 48.9375 34.5 48.9375C33.834 48.9375 33.2285 48.7559 32.8047 48.332L21.8457 38.0996C20.0293 36.4043 19 33.9824 19 31.4395Z" fill="white"/>
</svg>
