<svg width="34" height="34" viewBox="0 0 34 34" fill="none" xmlns="http://www.w3.org/2000/svg">
<path d="M14.3054 0.024931C25.3125 -0.591466 33.4198 10.3276 29.6581 21.0663C29.1272 22.5758 27.7181 24.7185 28.9352 26.2449C30.0012 27.5783 31.7861 26.9619 33.044 28.2618C35.6988 31.0041 32.3252 35.5285 29.0128 33.4865C27.2158 32.3795 27.714 29.9013 25.5739 29.1885C23.8993 28.6308 22.6332 29.5784 21.1914 30.1906C10.3885 34.7905 -1.14953 25.8591 0.092085 13.9588C0.868097 6.49081 6.97817 0.435862 14.3054 0.024931ZM17.7116 8.17646C10.1557 8.5832 5.62219 17.0702 9.42465 23.8464C13.317 30.7819 23.1029 30.7944 27.0279 23.8841C31.0999 16.7138 25.7372 7.74457 17.7076 8.17646H17.7116Z" fill="#F7F8F9"/>
</svg>
