<svg width="39" height="33" viewBox="0 0 39 33" fill="none" xmlns="http://www.w3.org/2000/svg">
<path d="M38.3928 10.3567L36.2648 1.83211C36.0055 0.7866 35.0629 0.0498047 33.9803 0.0498047H5.22058C4.14214 0.0498047 3.19954 0.782484 2.9361 1.83211L0.808042 10.3567C0.783345 10.4473 0.770996 10.5461 0.770996 10.6407C0.770996 13.8843 3.27775 16.5227 6.36076 16.5227C8.1513 16.5227 9.74837 15.6295 10.7733 14.2465C11.7982 15.6295 13.3953 16.5227 15.1858 16.5227C16.9764 16.5227 18.5735 15.6295 19.5984 14.2465C20.6233 15.6295 22.2163 16.5227 24.0109 16.5227C25.8056 16.5227 27.3985 15.6295 28.4235 14.2465C29.4484 15.6295 31.0413 16.5227 32.836 16.5227C35.919 16.5227 38.4258 13.8802 38.4258 10.6407C38.4258 10.5461 38.4134 10.4473 38.3887 10.3567H38.3928Z" fill="#F7F8F9"/>
<path d="M32.8401 18.8772C31.2389 18.8772 29.7159 18.3874 28.4275 17.4941C25.8508 19.2847 22.1751 19.2847 19.6024 17.4941C17.0257 19.2847 13.35 19.2847 10.7774 17.4941C9.48901 18.3874 7.96602 18.8772 6.36483 18.8772C5.20818 18.8772 4.12151 18.6055 3.12952 18.1445V30.6453C3.12952 31.946 4.18326 32.9998 5.48397 32.9998H14.8977V23.5861H24.3114V32.9998H33.725C35.0258 32.9998 36.0795 31.946 36.0795 30.6453V18.1445C35.0875 18.6055 34.0008 18.8772 32.8442 18.8772H32.8401Z" fill="#F7F8F9"/>
</svg>
