<svg width="27" height="25" viewBox="0 0 27 25" fill="none" xmlns="http://www.w3.org/2000/svg">
<path d="M12.2 0.478914C20.2132 0.0414489 26.1147 7.77308 23.376 15.3804C22.9887 16.4487 21.9652 17.9637 22.8504 19.0459C23.625 19.9899 24.9252 19.5524 25.8427 20.4734C27.7745 22.4167 25.3217 25.6217 22.9057 24.1757C21.5963 23.3929 21.9606 21.6384 20.4022 21.1319C19.185 20.7359 18.2583 21.4082 17.2117 21.841C9.34602 25.0967 0.945553 18.7742 1.84923 10.3426C2.41633 5.05158 6.86553 0.764418 12.1954 0.474309L12.2 0.478914ZM14.6805 6.25346C9.18004 6.54357 5.87887 12.553 8.64983 17.3513C11.4853 22.2601 18.6087 22.2693 21.4672 17.3789C24.4318 12.3043 20.5267 5.94954 14.6851 6.25346H14.6805Z" stroke="white" stroke-width="2" stroke-miterlimit="10"/>
</svg>
