<svg width="26" height="25" viewBox="0 0 26 25" fill="none" xmlns="http://www.w3.org/2000/svg">
<path d="M10.8076 0.478914C18.8208 0.0414489 24.7224 7.77308 21.9837 15.3804C21.5964 16.4487 20.5729 17.9637 21.4581 19.0459C22.2327 19.9899 23.5328 19.5524 24.4504 20.4734C26.3822 22.4167 23.9294 25.6217 21.5134 24.1757C20.204 23.3929 20.5682 21.6384 19.0099 21.1319C17.7927 20.7359 16.866 21.4082 15.8194 21.841C7.9537 25.0967 -0.446781 18.7742 0.456893 10.3426C1.02399 5.05158 5.47321 0.764418 10.803 0.474309L10.8076 0.478914ZM13.2881 6.25346C7.78772 6.54357 4.48654 12.553 7.2575 17.3513C10.093 22.2601 17.2164 22.2693 20.0749 17.3789C23.0395 12.3043 19.1344 5.94953 13.2927 6.25346H13.2881Z" fill="white"/>
</svg>
