<svg width="38" height="40" viewBox="0 0 38 40" fill="none" xmlns="http://www.w3.org/2000/svg">
<ellipse cx="19" cy="19.6962" rx="19" ry="19.3915" fill="#E0A075"/>
<path d="M9 16.9609V16.7656C9 14.0312 10.9531 11.6875 13.6484 11.2578C15.4063 10.9453 17.2422 11.5312 18.5313 12.8203L19 13.25L19.4297 12.8203C20.7188 11.5312 22.5547 10.9453 24.3125 11.2578C27.0078 11.6875 29 14.0312 29 16.7656V16.9609C29 18.6016 28.2969 20.1641 27.125 21.2578L20.0547 27.8594C19.7813 28.1328 19.3906 28.25 19 28.25C18.5703 28.25 18.1797 28.1328 17.9063 27.8594L10.8359 21.2578C9.66406 20.1641 9 18.6016 9 16.9609Z" fill="white"/>
</svg>
