<svg
  width="151"
  height="42"
  fill="none"
  xmlns="http://www.w3.org/2000/svg"
><path
    d="M98.947.924c-2.366 0-4.69.618-6.741 1.793a13.502 13.502 0 0 0-4.947 4.905V.94h-8.11v41.03h8.11V21.218a13.513 13.513 0 0 0 4.971 4.91 13.566 13.566 0 0 0 13.52-.049 13.52 13.52 0 0 0 4.935-4.946 13.456 13.456 0 0 0-.025-13.477 13.511 13.511 0 0 0-4.953-4.928 13.568 13.568 0 0 0-6.76-1.803Zm-3.615 22.485a9.043 9.043 0 0 1-5.013-1.516 9 9 0 0 1-3.323-4.036 8.968 8.968 0 0 1 1.956-9.802 9.05 9.05 0 0 1 9.833-1.95 9.012 9.012 0 0 1 4.049 3.313 8.97 8.97 0 0 1-1.122 11.357 9.026 9.026 0 0 1-6.38 2.634ZM62.246 29.925a9.34 9.34 0 0 1-2.765 6.623 9.4 9.4 0 0 1-6.656 2.73c-5.204 0-9.333-4.308-9.333-9.36V.94L35.336.924v24.483c0 9.144 8.316 16.57 17.49 16.57 9.173 0 17.507-7.43 17.507-16.574V.94h-8.087v28.985ZM33.31 35.575c-.407-.608-.808-.924-1.32-.924-.463 0-.72.148-1.137.434-.754.52-1.3 1.197-2.74 2.169-.548.372-2.662 1.942-7.002 2.032-3.725.077-6.914-1.898-8.492-3.286a13.132 13.132 0 0 1-4.244-7.19c-.48-2.11-.211-5.842-.232-9.702-.035-4.388 0-18.194 0-18.194H0s.016 21.712 0 23.893c-.051 6.6 2.889 10.807 5.776 13.241 4.287 3.62 14.676 5.468 24.075 2.354 1.77-.587 3.76-1.196 4.21-2.432a1.717 1.717 0 0 0-.176-1.53s-.43-.65-.575-.865ZM149.939 12.992C148.565 1.323 136.717.9 132.931.9c-2.284 0-6.189.284-10.051 2.416a17.229 17.229 0 0 0-3.559 2.687 1.841 1.841 0 0 0 .178 2.771l.892.707c.848.67 2.011.439 2.716-.38.663-.772 1.179-1.634 2.064-2.542.41-.422.851-.813 1.319-1.17a9.436 9.436 0 0 1 5.538-1.786c3.783 0 8.61 1.25 9.564 8.035a50.03 50.03 0 0 1 .346 8.263v.896a13.529 13.529 0 0 0-6.722-5.097 13.575 13.575 0 0 0-8.444-.132 13.534 13.534 0 0 0-6.879 4.884 13.46 13.46 0 0 0 0 15.997 13.534 13.534 0 0 0 6.879 4.884c2.757.855 5.716.808 8.444-.133a13.529 13.529 0 0 0 6.722-5.096v5.836l8.235.06V19.895c0-2.34.027-4.673-.234-6.902Zm-15.525 24.444a9.038 9.038 0 0 1-5.543-1.9 8.97 8.97 0 0 1-2.709-10.718 9.001 9.001 0 0 1 3.979-4.291 9.044 9.044 0 0 1 10.931 1.849 8.971 8.971 0 0 1 .875 11.019 9.015 9.015 0 0 1-3.259 2.969 9.046 9.046 0 0 1-4.283 1.072h.009Z"
    fill="#fff"
  /></svg>
