<svg width="25" height="25" viewBox="0 0 25 25" fill="none" xmlns="http://www.w3.org/2000/svg">
<path d="M10.4132 0.0177327C18.4264 -0.419733 24.3279 7.31189 21.5892 14.9192C21.2019 15.9875 20.1784 17.5025 21.0636 18.5847C21.8382 19.5287 23.1384 19.0912 24.0559 20.0122C25.9877 21.9555 23.5349 25.1605 21.1189 23.7145C19.8095 22.9317 20.1738 21.1772 18.6154 20.6707C17.3982 20.2747 16.4715 20.947 15.4249 21.3799C7.55923 24.6401 -0.83664 18.313 0.0670335 9.88603C0.629524 4.595 5.07874 0.307841 10.4132 0.0177327ZM12.8937 5.79228C7.39325 6.08239 4.09207 12.0918 6.86303 16.8901C9.69854 21.7989 16.8219 21.8081 19.6804 16.9177C22.645 11.8431 18.7399 5.48835 12.8983 5.79228H12.8937Z" fill="#8E9455"/>
</svg>
