<svg width="44" height="44" viewBox="0 0 44 44" fill="none" xmlns="http://www.w3.org/2000/svg">
<circle cx="22" cy="22" r="22" fill="#E6C178"/>
<path d="M20.4132 10.0177C28.4264 9.58027 34.3279 17.3119 31.5892 24.9192C31.2019 25.9875 30.1784 27.5025 31.0636 28.5847C31.8382 29.5287 33.1384 29.0912 34.0559 30.0122C35.9877 31.9555 33.5349 35.1605 31.1189 33.7145C29.8095 32.9317 30.1738 31.1772 28.6154 30.6707C27.3982 30.2747 26.4715 30.947 25.4249 31.3799C17.5592 34.6401 9.16336 28.313 10.067 19.886C10.6295 14.595 15.0787 10.3078 20.4132 10.0177ZM22.8937 15.7923C17.3932 16.0824 14.0921 22.0918 16.863 26.8901C19.6985 31.7989 26.8219 31.8081 29.6804 26.9177C32.645 21.8431 28.7399 15.4884 22.8983 15.7923H22.8937Z" fill="white"/>
</svg>
