<svg width="46" height="29" viewBox="0 0 46 29" fill="none" xmlns="http://www.w3.org/2000/svg">
<g clip-path="url(#clip0_583_192)">
<path d="M42.5105 0H3.48954C1.56232 0 0 1.57932 0 3.5275C0 5.47569 1.56232 7.055 3.48954 7.055H42.5105C44.4377 7.055 46 5.47569 46 3.5275C46 1.57932 44.4377 0 42.5105 0Z" fill="#8F905C"/>
<path d="M42.5105 10.9724H3.48954C1.56232 10.9724 0 12.5517 0 14.4999C0 16.4481 1.56232 18.0274 3.48954 18.0274H42.5105C44.4377 18.0274 46 16.4481 46 14.4999C46 12.5517 44.4377 10.9724 42.5105 10.9724Z" fill="#8F905C"/>
<path d="M42.5105 21.9485H3.48954C1.56232 21.9485 0 23.5278 0 25.476C0 27.4242 1.56232 29.0035 3.48954 29.0035H42.5105C44.4377 29.0035 46 27.4242 46 25.476C46 23.5278 44.4377 21.9485 42.5105 21.9485Z" fill="#8F905C"/>
</g>
<defs>
<clipPath id="clip0_583_192">
<rect width="46" height="29" fill="white"/>
</clipPath>
</defs>
</svg>
