<svg width="28" height="27" viewBox="0 0 28 27" fill="none" xmlns="http://www.w3.org/2000/svg">
<g clip-path="url(#clip0_583_189)">
<path d="M11.7807 0.0200409C20.8439 -0.469415 27.5193 8.20095 24.4221 16.7281C23.9849 17.9268 22.8246 19.6283 23.8268 20.8402C24.7045 21.8991 26.1742 21.4096 27.2099 22.4418C29.3959 24.6194 26.6181 28.2121 23.8907 26.5905C22.411 25.7115 22.8213 23.7437 21.0591 23.1776C19.6803 22.7348 18.6378 23.4873 17.4506 23.9734C8.55561 27.626 -0.944748 20.5339 0.0775921 11.0844C0.716554 5.15434 5.74754 0.346345 11.7807 0.0200409ZM14.5854 6.49285C8.36392 6.81582 4.63104 13.555 7.76195 18.9357C10.9669 24.4429 19.0245 24.4529 22.2563 18.9657C25.4881 13.4784 21.1936 6.1499 14.582 6.49285H14.5854Z" fill="#D7A07D"/>
</g>
<defs>
<clipPath id="clip0_583_189">
<rect width="28" height="27" fill="white"/>
</clipPath>
</defs>
</svg>
