<svg width="265" height="265" viewBox="0 0 265 265" fill="none" xmlns="http://www.w3.org/2000/svg">
<g clip-path="url(#clip0_257_2)">
<path d="M95.1811 21.6588H21.6072V95.4055H95.178V21.6588H95.1811ZM84.958 85.1611H31.8303V31.9064H84.958V85.1611Z" fill="black"/>
<path d="M74.3594 42.5334H42.4321V74.5371H74.3594V42.5334Z" fill="black"/>
<path d="M169.819 21.6588V95.4055H243.39V21.6588H169.819ZM233.17 85.1611H180.042V31.9064H233.17V85.1611Z" fill="black"/>
<path d="M222.568 42.5334H190.641V74.5371H222.568V42.5334Z" fill="black"/>
<path d="M21.6072 243.027H95.178V169.281H21.6072V243.027ZM31.8303 179.525H84.958V232.78H31.8303V179.525Z" fill="black"/>
<path d="M74.3594 190.152H42.4321V222.156H74.3594V190.152Z" fill="black"/>
<path d="M42.4289 105.917H21.6072V116.509H42.4289V105.917Z" fill="black"/>
<path d="M84.7702 117.014H95.3845V127.155H74.3594V128.604V137.748V148.309V158.901V158.905H84.7702V158.901H106.096V148.309H84.7702V137.748H106.096V148.303H116.507V137.748V128.604V127.155H105.799V106.387H95.3845V106.422H84.7702V117.014Z" fill="black"/>
<path d="M147.489 137.748V148.34H137.078V158.898H126.667V169.497H116.507V180.024H106.096V158.905L116.507 158.898V148.309H126.917V137.748H147.489Z" fill="black"/>
<path d="M168.983 190.152V180.024V179.56V169.431H158.572V179.56H126.917V190.152H137.203V201.372H126.917V190.152H116.507V201.156H105.836V211.748H116.507V222.156H105.836V243.028H116.507H126.404H126.917V222.156H137.203V211.548H147.614V190.152H168.983Z" fill="black"/>
<path d="M158.025 222.156V232.748H189.743V243.341H221.751V232.748H200.091V222.156V211.548H189.68V222.156H158.025Z" fill="black"/>
<path d="M158.025 232.749H137.328V243.341H158.025V232.749Z" fill="black"/>
<path d="M169.19 127.155H147.489V137.748H169.19V127.155Z" fill="black"/>
<path d="M231.38 137.757V148.209H241.747V158.82H231.336V148.209H220.925V158.82H210.514V148.209H200.175V127.161L220.809 127.143V116.848H210.139V106.255H231.223V116.848H231.22V127.161H242.066V137.757H231.38Z" fill="black"/>
<path d="M137.078 158.905V169.497H147.489V158.933H157.9V148.34H147.489V158.905H137.078Z" fill="black"/>
<path d="M158.025 211.548H147.614V222.156H158.025V211.548Z" fill="black"/>
<path d="M220.925 211.535H210.514V222.143H220.925V211.535Z" fill="black"/>
<path d="M179.413 148.34H169.002V158.933H179.413V148.34Z" fill="black"/>
<path d="M169.19 127.155H179.601V116.86H200.62V106.268H169.19V116.86V127.155Z" fill="black"/>
<path d="M32.018 127.111H21.6072V158.905H32.018V127.111Z" fill="black"/>
<path d="M116.156 106.422H116.507V127.155H126.918V116.246H137.328V106.422H152.818V106.387H158.629V63.9382H148.218V74.9417H137.328V85.3775H148.218V95.9858H137.328V85.3775H126.918V95.9858H116.209V64.1076H126.62V21.6588H116.209V32.2734H105.799V53.4962H116.209V63.9382H105.799V106.387H116.156V106.422Z" fill="black"/>
<path d="M231.336 179.905V190.98H220.925V179.905H210.508V158.82H200.169V148.208H189.758V158.933H179.413V190.152H168.983V200.745H178.43V211.548H189.68V200.745H200.091V190.124L200.097 190.137H210.508V190.093L210.514 190.137V200.729H220.925V211.532H231.336V232.629H241.747V179.902H231.336V179.905ZM200.091 179.544H189.824V169.362H200.097L200.091 179.544Z" fill="black"/>
<path d="M231.336 158.82H220.925V179.905H231.336V158.82Z" fill="black"/>
<path d="M210.514 200.732H200.097V211.535H210.514V200.732Z" fill="black"/>
<path d="M158.548 32.0946V21.6588H148.218H140.264H137.328V43.0667H148.218V32.0946H158.548Z" fill="black"/>
<path d="M148.218 53.5025H137.328V63.9383H148.218V53.5025Z" fill="black"/>
<path d="M159.108 43.0667H148.218V53.5025H159.108V43.0667Z" fill="black"/>
<path d="M63.2539 148.303H52.843V158.905H63.2539V148.303Z" fill="black"/>
<path d="M63.2539 138.215V106.422H52.843V116.509H42.4321V148.303H52.843V138.215H63.2539Z" fill="black"/>
<path d="M4.12117 52.1976C1.84623 52.1976 0 50.3501 0 48.0666V4.13102C0 1.84751 1.8431 0 4.12117 0H47.9551C50.23 0 52.0763 1.84751 52.0763 4.13102C52.0763 6.41453 50.2332 8.26204 47.9551 8.26204H8.2392V48.0729C8.2392 50.3533 6.3961 52.2039 4.11804 52.2039L4.12117 52.1976Z" fill="black"/>
<path d="M260.879 52.1977C258.604 52.1977 256.758 50.3501 256.758 48.0666V8.25892H217.042C214.767 8.25892 212.921 6.41142 212.921 4.12791C212.921 1.8444 214.764 -0.00311279 217.042 -0.00311279H260.876C263.151 -0.00311279 264.997 1.8444 264.997 4.12791V48.0666C264.997 50.347 263.154 52.1977 260.876 52.1977H260.879Z" fill="black"/>
<path d="M47.9551 265H4.12117C1.84623 265 0 263.152 0 260.869V216.93C0 214.65 1.8431 212.799 4.12117 212.799C6.39923 212.799 8.24233 214.647 8.24233 216.93V256.741H47.9582C50.2332 256.741 52.0794 258.589 52.0794 260.872C52.0794 263.156 50.2363 265.003 47.9582 265.003L47.9551 265Z" fill="black"/>
<path d="M260.879 265H217.045C214.77 265 212.924 263.153 212.924 260.869C212.924 258.586 214.767 256.738 217.045 256.738H256.761V216.927C256.761 214.647 258.604 212.796 260.882 212.796C263.16 212.796 265.003 214.644 265.003 216.927V260.866C265.003 263.146 263.16 264.997 260.882 264.997L260.879 265Z" fill="black"/>
</g>
<defs>
<clipPath id="clip0_257_2">
<rect width="265" height="265" fill="white"/>
</clipPath>
</defs>
</svg>
