<svg xmlns="http://www.w3.org/2000/svg" xmlns:xlink="http://www.w3.org/1999/xlink" width="1134" zoomAndPan="magnify" viewBox="0 0 850.07996 566.999966" height="756" preserveAspectRatio="xMidYMid meet" version="1.0"><defs><clipPath id="f4c357587f"><path d="M 213.644531 132 L 636 132 L 636 244 L 213.644531 244 Z M 213.644531 132 " clip-rule="nonzero"/></clipPath><clipPath id="b043948c57"><path d="M 254 104.828125 L 596 104.828125 L 596 143 L 254 143 Z M 254 104.828125 " clip-rule="nonzero"/></clipPath><clipPath id="cee843e795"><path d="M 226 432 L 624 432 L 624 462.191406 L 226 462.191406 Z M 226 432 " clip-rule="nonzero"/></clipPath></defs><path fill="#d9d9d9" d="M 595.207031 442.199219 L 254.261719 442.199219 L 254.261719 233.5 L 595.066406 233.5 L 595.066406 442.199219 Z M 264.097656 432.363281 L 585.230469 432.363281 L 585.230469 243.339844 L 264.097656 243.339844 Z M 264.097656 432.363281 " fill-opacity="1" fill-rule="nonzero"/><path fill="#d9d9d9" d="M 372.734375 442.199219 L 284.757812 442.199219 L 284.757812 312.625 L 372.734375 312.625 Z M 294.59375 432.363281 L 362.898438 432.363281 L 362.898438 322.460938 L 294.59375 322.460938 Z M 294.59375 432.363281 " fill-opacity="1" fill-rule="nonzero"/><path fill="#d9d9d9" d="M 342.800781 372.492188 L 357.695312 372.492188 L 357.695312 382.332031 L 342.800781 382.332031 Z M 342.800781 372.492188 " fill-opacity="1" fill-rule="nonzero"/><path fill="#d9d9d9" d="M 565.976562 420.417969 L 394.800781 420.417969 L 394.800781 265.683594 L 565.976562 265.683594 Z M 404.636719 410.578125 L 556.136719 410.578125 L 556.136719 275.523438 L 404.636719 275.523438 Z M 404.636719 410.578125 " fill-opacity="1" fill-rule="nonzero"/><path fill="#d9d9d9" d="M 444.183594 355.421875 L 505.992188 293.609375 L 512.949219 300.566406 L 451.136719 362.378906 Z M 444.183594 355.421875 " fill-opacity="1" fill-rule="nonzero"/><path fill="#d9d9d9" d="M 452.113281 389.246094 L 532.703125 308.652344 L 539.660156 315.609375 L 459.066406 396.203125 Z M 452.113281 389.246094 " fill-opacity="1" fill-rule="nonzero"/><g clip-path="url(#f4c357587f)"><path fill="#d9d9d9" d="M 635.824219 243.339844 L 213.644531 243.339844 L 255.804688 132.59375 L 593.664062 132.59375 Z M 227.839844 233.5 L 621.488281 233.5 L 586.917969 142.429688 L 262.550781 142.429688 Z M 227.839844 233.5 " fill-opacity="1" fill-rule="nonzero"/></g><g clip-path="url(#b043948c57)"><path fill="#d9d9d9" d="M 595.207031 142.429688 L 254.261719 142.429688 L 254.261719 104.90625 L 595.066406 104.90625 L 595.066406 142.429688 Z M 264.097656 132.59375 L 585.230469 132.59375 L 585.230469 114.746094 L 264.097656 114.746094 Z M 264.097656 132.59375 " fill-opacity="1" fill-rule="nonzero"/></g><g clip-path="url(#cee843e795)"><path fill="#d9d9d9" d="M 623.035156 462.015625 L 226.433594 462.015625 L 226.433594 432.363281 L 623.175781 432.363281 L 623.175781 462.015625 Z M 236.269531 452.179688 L 613.339844 452.179688 L 613.339844 442.199219 L 236.269531 442.199219 Z M 236.269531 452.179688 " fill-opacity="1" fill-rule="nonzero"/></g></svg>