<svg width="69" height="65" viewBox="0 0 69 65" fill="none" xmlns="http://www.w3.org/2000/svg">
<g clip-path="url(#clip0_4_199)">
<path d="M66.9247 38.6286L19.782 64.4138C17.8996 65.445 15.4112 64.5611 14.2634 62.4497L9.82518 54.2925C9.57419 53.829 9.62622 53.2398 9.98434 52.7948C9.98434 52.7948 9.99964 52.7856 9.99046 52.7703C11.0128 51.5672 11.1934 49.8087 10.4373 48.4154C9.68132 47.0252 8.13867 46.2488 6.54398 46.436C6.54398 46.436 6.52868 46.4452 6.5195 46.4298C5.96855 46.482 5.43903 46.2334 5.17886 45.7516L0.740673 37.5944C-0.407134 35.483 0.183604 32.9173 2.08131 31.88L49.221 6.09487C51.1034 5.0637 53.5918 5.94756 54.7396 8.05898L59.1778 16.2162C59.4288 16.6796 59.3767 17.2688 59.037 17.7046C59.037 17.7046 59.0217 17.7138 59.0309 17.7292C58.0086 18.9322 57.828 20.6907 58.584 22.084C59.34 23.4742 60.8827 24.2507 62.4774 24.0635C62.4774 24.0635 62.4927 24.0543 62.5018 24.0696C63.0528 24.0174 63.567 24.2752 63.8272 24.757L68.2654 32.9143C69.4132 35.0257 68.8071 37.6005 66.9247 38.6286ZM11.0801 53.6725L15.4846 61.7653C16.2774 63.22 17.8935 63.8307 19.1056 63.1678L66.2483 37.3826C67.4604 36.7197 67.8154 35.0104 67.0319 33.571L62.6273 25.4782C60.5062 25.7667 58.385 24.6834 57.3505 22.7807C56.3312 20.9086 56.5577 18.5455 57.9443 16.873L53.5306 8.76177C52.7378 7.30709 51.1217 6.69638 49.9096 7.35927L2.76693 33.1444C1.55485 33.8073 1.1998 35.5167 1.98336 36.9561L6.39706 45.0672C8.50903 44.8033 10.621 45.8682 11.6586 47.774C12.687 49.6614 12.4605 52.0276 11.0801 53.6725Z" fill="#FFFFFD" stroke="white" stroke-miterlimit="10"/>
<path d="M11.8607 51.647C11.7015 51.733 11.5057 51.7575 11.3189 51.7146L11.1965 51.6777L11.0955 51.6072C11.0618 51.5826 11.019 51.5458 11.0037 51.512C10.97 51.4875 10.9455 51.4414 10.918 51.3923C10.8904 51.3432 10.8751 51.3125 10.8629 51.2542C10.8629 51.2143 10.8353 51.1652 10.8353 51.1253C10.8353 51.0854 10.8231 51.0271 10.8323 51.0026C10.8323 50.9627 10.8445 50.9136 10.869 50.8798C10.8843 50.8307 10.8904 50.8062 10.921 50.7478C10.9363 50.6987 10.9669 50.6803 10.9914 50.6466C11.0159 50.6128 11.0527 50.5698 11.0863 50.5545C11.172 50.487 11.2363 50.4502 11.3251 50.4225C11.3649 50.4225 11.4138 50.3949 11.4536 50.3949C11.4934 50.3949 11.5516 50.3826 11.5761 50.3919C11.6158 50.3919 11.6648 50.4041 11.7138 50.4195L11.8362 50.4563L11.9372 50.5269C11.9709 50.5514 12.0137 50.5883 12.0291 50.622C12.0627 50.6466 12.0872 50.6926 12.1148 50.7417C12.1423 50.7908 12.1576 50.8215 12.1698 50.8798C12.1698 50.9197 12.1974 50.9688 12.1974 51.0087C12.1974 51.0486 12.2096 51.1069 12.2005 51.1315C12.2005 51.1714 12.1882 51.2205 12.1637 51.2542C12.1484 51.3033 12.1423 51.3279 12.1117 51.3862L12.0413 51.4875C12.0168 51.5212 11.9801 51.5642 11.9464 51.5795C11.9556 51.5949 11.9066 51.6225 11.8607 51.647Z" fill="#FFFFFD" stroke="white" stroke-miterlimit="10"/>
<path d="M49.6954 7.53733C49.4077 7.69385 49.0404 7.62633 48.82 7.37161L45.0123 2.73138C43.9747 1.47312 42.2484 1.15088 41.1986 2.03781L2.88938 33.1414C2.58942 33.39 2.14866 33.3379 1.90074 33.0371C1.65281 32.7363 1.70485 32.2944 2.00481 32.0458L40.3048 0.966748C41.9638 -0.398927 44.5563 -0.00917296 46.102 1.84446L49.9097 6.48469C50.1576 6.78544 50.1055 7.22737 49.8056 7.47595L49.6954 7.53733Z" fill="#FFFFFD" stroke="white" stroke-miterlimit="10"/>
<path d="M11.3372 55.6275C11.0495 55.784 10.6669 55.7257 10.4618 55.4618L10.3517 55.3359C10.2231 55.1763 10.168 54.9585 10.2109 54.7712C10.2323 54.6976 10.2537 54.6239 10.2935 54.5411C10.3547 54.4245 10.4588 54.3477 10.5843 54.2771C10.9179 54.093 11.3556 54.2096 11.5454 54.5595L11.5882 54.6393C11.7933 54.9431 11.7535 55.3605 11.4597 55.5814C11.4046 55.5907 11.3709 55.6091 11.3403 55.6275H11.3372Z" fill="#FFFFFD" stroke="white" stroke-miterlimit="10"/>
<path d="M49.0894 43.8613C48.7558 44.0454 48.3181 43.9288 48.1283 43.5789L47.3631 42.1703C47.1795 41.8358 47.2958 41.3969 47.6447 41.2066C47.9936 41.0164 48.416 41.1391 48.6058 41.489L49.371 42.8976C49.5455 43.2597 49.423 43.6771 49.0894 43.8613Z" fill="#FFFFFD" stroke="white" stroke-miterlimit="10"/>
<path d="M45.9827 38.15C45.6491 38.3341 45.2114 38.2175 45.0216 37.8676L44.2564 36.459C44.0728 36.1245 44.1891 35.6856 44.538 35.4953C44.8869 35.3051 45.3093 35.4278 45.4991 35.7777L46.2643 37.1863C46.4388 37.5484 46.3163 37.9658 45.9827 38.15Z" fill="#FFFFFD" stroke="white" stroke-miterlimit="10"/>
<path d="M42.876 32.4387C42.5424 32.6228 42.1047 32.5062 41.9149 32.1563L41.1497 30.7477C40.9661 30.4132 41.0824 29.9743 41.4313 29.784C41.7833 29.5907 42.2026 29.7165 42.3924 30.0664L43.1576 31.475C43.3229 31.8187 43.2097 32.2545 42.876 32.4387Z" fill="#FFFFFD" stroke="white" stroke-miterlimit="10"/>
<path d="M39.7692 26.7304C39.4356 26.9146 38.9979 26.7979 38.8081 26.4481L38.0429 25.0394C37.8593 24.7049 37.9756 24.2661 38.3245 24.0758C38.6765 23.8824 39.0958 24.0083 39.2856 24.3581L40.0508 25.7668C40.2253 26.1289 40.1028 26.5463 39.7692 26.7304Z" fill="#FFFFFD" stroke="white" stroke-miterlimit="10"/>
<path d="M36.6686 21.0345C36.335 21.2186 35.8973 21.102 35.7075 20.7522L34.9423 19.3435C34.7587 19.009 34.875 18.5701 35.2239 18.3799C35.5759 18.1865 35.9952 18.3123 36.185 18.6622L36.9502 20.0708C37.1155 20.4146 37.0023 20.8504 36.6686 21.0345Z" fill="#FFFFFD" stroke="white" stroke-miterlimit="10"/>
<path d="M47.865 18.1711L44.0206 20.2734C43.687 20.4575 43.2493 20.3409 43.0595 19.991C42.8698 19.6412 42.9922 19.2176 43.3411 19.0274L47.2008 16.9159C47.5345 16.7318 47.9722 16.8484 48.1619 17.1983C48.3272 17.542 48.2293 17.9717 47.862 18.1711H47.865Z" fill="#FFFFFD" stroke="white" stroke-miterlimit="10"/>
<path d="M50.831 23.6246L46.9866 25.7268C46.653 25.911 46.2153 25.7944 46.0255 25.4445C45.8357 25.0946 45.9581 24.6711 46.3071 24.4809L50.1668 22.3694C50.5004 22.1853 50.9381 22.3019 51.1279 22.6518C51.3023 23.0139 51.1952 23.4251 50.8279 23.6246H50.831Z" fill="#FFFFFD" stroke="white" stroke-miterlimit="10"/>
<path d="M53.8091 29.0965L49.9647 31.1988C49.6311 31.3829 49.1934 31.2663 49.0036 30.9164C48.8139 30.5666 48.9363 30.1431 49.2852 29.9528L53.1449 27.8414C53.4785 27.6572 53.9162 27.7738 54.106 28.1237C54.2988 28.4766 54.1734 28.8971 53.8061 29.0965H53.8091Z" fill="#FFFFFD" stroke="white" stroke-miterlimit="10"/>
<path d="M56.7751 34.55L52.9307 36.6523C52.597 36.8364 52.1593 36.7198 51.9696 36.3699C51.7798 36.0201 51.9022 35.5965 52.2512 35.4063L56.1109 33.2948C56.4445 33.1107 56.8822 33.2273 57.072 33.5772C57.2556 33.9547 57.1393 34.3506 56.772 34.55H56.7751Z" fill="#FFFFFD" stroke="white" stroke-miterlimit="10"/>
<path d="M30.1521 50.5238C30.0236 50.5944 29.8736 50.6558 29.7267 50.6926C29.1145 50.8614 28.533 50.7018 28.0004 50.6006C27.6882 50.5208 27.3851 50.4594 27.1495 50.4839C26.9138 50.5085 26.6322 50.6006 26.3108 50.6926C25.8058 50.8645 25.2334 51.0732 24.6121 50.9566C23.9907 50.8399 23.5224 50.4747 23.1031 50.1218C22.8521 49.9285 22.6256 49.7382 22.3868 49.6431C22.1726 49.5541 21.8604 49.5142 21.542 49.462C21.0125 49.4006 20.4065 49.3147 19.8984 48.9495C19.3903 48.5843 19.1424 48.0564 18.9128 47.5592C18.772 47.2616 18.6404 46.9823 18.4782 46.8012C18.3159 46.6202 18.0588 46.4483 17.7926 46.3041C17.3426 46.0094 16.8192 45.6933 16.507 45.1194C16.1948 44.5425 16.1979 43.941 16.2101 43.3947C16.2101 43.0847 16.2101 42.7901 16.1489 42.5569C16.0877 42.3236 15.9101 42.0444 15.7387 41.7651C15.4541 41.3201 15.1511 40.7984 15.1205 40.1723C15.0898 39.5463 15.3561 39.0061 15.5826 38.509C15.7357 38.2174 15.8551 37.9443 15.8795 37.7233C15.9346 37.4839 15.8918 37.177 15.8642 36.8609C15.8214 36.3239 15.7418 35.7224 15.9805 35.1362C16.2193 34.55 16.709 34.1572 17.1222 33.8473C17.3671 33.6508 17.612 33.4544 17.7528 33.255C17.8752 33.0616 17.9976 32.7885 18.0986 32.4846C18.2762 31.9721 18.4659 31.4105 18.9404 30.987C19.3964 30.5696 19.9933 30.453 20.5014 30.318C20.8166 30.2505 21.1227 30.1645 21.3309 30.051C21.5543 29.9282 21.7808 29.7011 22.0195 29.4894C22.396 29.118 22.8276 28.6945 23.4092 28.5411C24.0213 28.3723 24.6029 28.5319 25.1355 28.6331C25.4477 28.7129 25.7507 28.7743 25.9864 28.7498C26.2312 28.7406 26.5036 28.6331 26.825 28.5411C27.3392 28.3846 27.9024 28.1605 28.5238 28.2771C29.1451 28.3938 29.6134 28.759 30.0328 29.1119C30.2837 29.3052 30.5102 29.4955 30.749 29.5906C30.9632 29.6796 31.2754 29.7195 31.5938 29.7717C32.1233 29.8331 32.7293 29.919 33.2374 30.2842C33.7455 30.6494 33.9935 31.1773 34.223 31.6745C34.3638 31.9721 34.4954 32.2514 34.6577 32.4325C34.8199 32.6135 35.0525 32.7762 35.3249 32.9389C35.7749 33.2335 36.3074 33.5649 36.6105 34.1235C36.9165 34.682 36.9196 35.3019 36.9074 35.8482C36.9074 36.1582 36.9074 36.4528 36.9686 36.686C37.0298 36.9193 37.2073 37.1985 37.3787 37.4778C37.6634 37.9228 37.9664 38.4445 37.997 39.0706C38.0276 39.6966 37.7613 40.2368 37.5348 40.7339C37.3818 41.0255 37.2624 41.2986 37.2379 41.5196C37.1828 41.759 37.2257 42.0659 37.2532 42.382C37.2961 42.919 37.3757 43.5205 37.1369 44.1067C36.8982 44.6929 36.4084 45.0857 35.9952 45.3956C35.7504 45.5921 35.4963 45.7731 35.3647 45.988C35.2331 46.1629 35.1198 46.4544 35.0188 46.7583C34.8413 47.2708 34.6515 47.8324 34.1771 48.2559C33.721 48.6733 33.1242 48.7899 32.6069 48.9065C32.2916 48.974 31.9764 49.0446 31.7713 49.1582C31.5479 49.2809 31.3214 49.508 31.0918 49.7382C30.8347 50.0236 30.5347 50.3121 30.1521 50.5208V50.5238ZM20.0545 31.9691C20.0055 31.9967 19.9596 32.0212 19.9198 32.0642C19.7239 32.233 19.5892 32.5982 19.4638 32.9787C19.3383 33.3593 19.1822 33.7552 18.9342 34.0989C18.671 34.4518 18.3527 34.7066 18.0527 34.9551C17.7375 35.2099 17.4528 35.4492 17.3395 35.6978C17.2263 35.9464 17.263 36.3208 17.3181 36.7259C17.3579 37.1402 17.413 37.5453 17.3395 37.9811C17.2661 38.4169 17.0671 38.8159 16.911 39.1719C16.7366 39.5371 16.5621 39.8624 16.5866 40.1386C16.605 40.3994 16.7855 40.7339 17.009 41.0685C17.2171 41.4122 17.4406 41.7866 17.5691 42.2132C17.664 42.6183 17.6793 43.0234 17.6854 43.4162C17.7007 43.8244 17.6885 44.2233 17.8201 44.4627C17.9517 44.7021 18.267 44.9046 18.6159 45.1287C18.9648 45.3527 19.3077 45.5614 19.5954 45.902C19.8831 46.2427 20.0759 46.6355 20.2443 46.9792C20.4187 47.3414 20.5779 47.6697 20.7952 47.8416C21.0125 48.0134 21.4043 48.0472 21.8053 48.0994C22.1909 48.1577 22.6225 48.1915 23.0112 48.3756C23.4 48.5567 23.7428 48.8052 24.0519 49.0722C24.3702 49.3147 24.6702 49.5633 24.9243 49.6124C25.2028 49.6676 25.564 49.5326 25.9343 49.4129C26.3108 49.2686 26.7056 49.1582 27.1189 49.1183C27.5566 49.0876 27.9667 49.195 28.3616 49.2686C28.7472 49.3699 29.1145 49.4374 29.3747 49.3791C29.6073 49.3147 29.8828 49.06 30.1582 48.7653C30.449 48.5014 30.7643 48.1638 31.1469 47.9551C31.5295 47.7465 31.9641 47.6329 32.362 47.5623C32.7416 47.458 33.1211 47.3966 33.3078 47.2094C33.5037 47.0406 33.6384 46.6754 33.7639 46.2948C33.8894 45.9143 34.0455 45.5184 34.2934 45.1747C34.5566 44.8218 34.875 44.567 35.1749 44.3185C35.4902 44.0637 35.7749 43.8244 35.8881 43.5758C35.9922 43.3118 35.9646 42.9528 35.9095 42.5477C35.8544 42.1426 35.8146 41.7283 35.8881 41.2925C35.9616 40.8567 36.1605 40.4577 36.3166 40.1017C36.4911 39.7365 36.6655 39.4112 36.6411 39.135C36.6227 38.8742 36.4237 38.5489 36.2187 38.2051C36.0136 37.8614 35.7871 37.487 35.6585 37.0604C35.5483 36.6645 35.5484 36.2502 35.5422 35.8574C35.5269 35.4492 35.5392 35.0503 35.4076 34.8109C35.2759 34.5715 34.9515 34.3536 34.6026 34.1296C34.2689 33.8964 33.9108 33.6969 33.6568 33.3808C33.369 33.0401 33.1762 32.6473 32.9987 32.2882C32.8242 31.9261 32.6651 31.5977 32.4477 31.4259C32.2304 31.254 31.8386 31.2202 31.4377 31.1681C31.052 31.1098 30.6204 31.076 30.2317 30.8919C29.8277 30.72 29.5002 30.4622 29.191 30.1952C28.8819 29.9282 28.5727 29.7042 28.3187 29.6551C28.0647 29.606 27.679 29.7349 27.3086 29.8546C26.9321 29.9988 26.5373 30.1093 26.1241 30.1492C25.6864 30.1799 25.2762 30.0725 24.8814 29.9988C24.4957 29.8975 24.1284 29.83 23.8683 29.8883C23.6357 29.9528 23.3602 30.2075 23.0847 30.5021C22.8031 30.7814 22.4787 31.1036 22.0961 31.3123C21.7135 31.521 21.2788 31.6346 20.8809 31.7051C20.5748 31.788 20.2749 31.8494 20.0514 31.9721L20.0545 31.9691Z" fill="#FFFFFD" stroke="white" stroke-miterlimit="10"/>
<path d="M23.0511 40.4823C21.8237 41.1544 20.2688 40.6971 19.5985 39.4634C18.9282 38.2328 19.3842 36.6737 20.6147 36.0016C21.8421 35.3295 23.397 35.7868 24.0673 37.0205C24.7284 38.2358 24.2968 39.801 23.0511 40.4823ZM21.285 37.2354C20.7279 37.5422 20.5228 38.2328 20.8289 38.7944C21.135 39.3529 21.8237 39.5585 22.3838 39.2516C22.9409 38.9448 23.146 38.2542 22.8399 37.6926C22.543 37.1095 21.8298 36.9377 21.285 37.2354Z" fill="#FFFFFD" stroke="white" stroke-miterlimit="10"/>
<path d="M32.5855 43.2781C31.3581 43.9502 29.8032 43.4929 29.1329 42.2592C28.4626 41.0285 28.9186 39.4695 30.1491 38.7974C31.3765 38.1253 32.9314 38.5826 33.6017 39.8163C34.2873 41.0377 33.8313 42.5968 32.5855 43.2781ZM30.8164 40.0311C30.2593 40.338 30.0542 41.0285 30.3603 41.5901C30.6664 42.1487 31.3551 42.3543 31.9152 42.0474C32.4723 41.7405 32.6773 41.05 32.3712 40.4884C32.0652 39.9299 31.3765 39.7242 30.8164 40.0311Z" fill="#FFFFFD" stroke="white" stroke-miterlimit="10"/>
<path d="M25.0958 46.482C24.9366 46.5679 24.7499 46.6078 24.5693 46.5403C24.1989 46.4298 23.9908 46.0462 24.0979 45.6779L27.7525 33.2181C27.8627 32.8467 28.2453 32.6381 28.6126 32.7455C28.9799 32.8529 29.1911 33.2396 29.084 33.6078L25.4447 46.0585C25.3773 46.2396 25.2702 46.3838 25.0927 46.4789L25.0958 46.482Z" fill="#FFFFFD" stroke="white" stroke-miterlimit="10"/>
</g>
<defs>
<clipPath id="clip0_4_199">
<rect width="69" height="65" fill="white"/>
</clipPath>
</defs>
</svg>
