<svg width="16" height="17" viewBox="0 0 16 17" fill="none" xmlns="http://www.w3.org/2000/svg">
<path d="M15.5122 13.8008C16.147 14.3867 16.147 15.4121 15.5122 15.998C15.2192 16.291 14.8286 16.4375 14.438 16.4375C13.9985 16.4375 13.6079 16.291 13.3149 15.998L8.18799 10.8711L3.01221 15.998C2.71924 16.291 2.32861 16.4375 1.93799 16.4375C1.49854 16.4375 1.10791 16.291 0.814941 15.998C0.180176 15.4121 0.180176 14.3867 0.814941 13.8008L5.94189 8.625L0.814941 3.49805C0.180176 2.91211 0.180176 1.88672 0.814941 1.30078C1.40088 0.666016 2.42627 0.666016 3.01221 1.30078L8.18799 6.42773L13.3149 1.30078C13.9009 0.666016 14.9263 0.666016 15.5122 1.30078C16.147 1.88672 16.147 2.91211 15.5122 3.49805L10.3853 8.67383L15.5122 13.8008Z" fill="white"/>
</svg>
